STARTFONT 2.1
COMMENT Created by fdbbdf
FONT times22bi
SIZE 22 78 78
FONTBOUNDINGBOX 26 24 -2 -6
STARTPROPERTIES 4
Ownership "  Copyright (c) 1984 Adobe Systems, Inc.  /adobe/fonttools/bitmaps/stdfontvec.ps TI24.bits  TOTAL BITMAP BYTES 3944  GUIDELINES -5 0 11 17 DONE  WIDTHERR -173 -67  "
FONT_ASCENT 18
FONT_DESCENT 6
DEFAULT_CHAR 32
ENDPROPERTIES
CHARS 96
STARTCHAR ch-26
ENCODING -1 26
SWIDTH 0 0
DWIDTH 0 0
BBX 1 1 0 -1
BITMAP
0000
ENDCHAR
STARTCHAR sp
ENCODING -1 32
SWIDTH 0 0
DWIDTH 6 0
BBX 0 0 0 0
BITMAP
ENDCHAR
STARTCHAR !
ENCODING -1 33
SWIDTH 0 0
DWIDTH 10 0
BBX 8 17 1 -1
BITMAP
0600
0f00
0f00
0e00
1e00
1c00
1c00
1c00
1800
3800
3000
3000
0000
0000
e000
e000
e000
ENDCHAR
STARTCHAR "
ENCODING -1 34
SWIDTH 0 0
DWIDTH 14 0
BBX 8 6 4 10
BITMAP
6300
e700
e700
c600
c600
8400
ENDCHAR
STARTCHAR #
ENCODING -1 35
SWIDTH 0 0
DWIDTH 15 0
BBX 15 17 0 -1
BITMAP
0318
0318
0318
0630
0630
3ffe
3ffe
0630
0c60
0c60
fff8
fff8
18c0
18c0
3180
3180
3180
ENDCHAR
STARTCHAR $
ENCODING -1 36
SWIDTH 0 0
DWIDTH 11 0
BBX 10 21 0 -3
BITMAP
0100
0100
0f80
1ac0
32c0
32c0
3400
3c00
3e00
1f00
0f80
0f80
0bc0
09c0
09c0
d1c0
d380
d700
7c00
2000
2000
ENDCHAR
STARTCHAR %
ENCODING -1 37
SWIDTH 0 0
DWIDTH 20 0
BBX 17 17 1 -1
BITMAP
0e0c0000
3ff80000
79180000
71300000
f1300000
e3600000
e2600000
c6c70000
ecdf8000
79bc8000
01b88000
03788000
03718000
06710000
06630000
0c760000
0c3c0000
ENDCHAR
STARTCHAR &
ENCODING -1 38
SWIDTH 0 0
DWIDTH 19 0
BBX 17 17 1 -1
BITMAP
01f00000
03980000
07180000
07180000
07300000
07600000
03c00000
07800000
1f8f0000
3dc60000
79c40000
f0ec0000
f0f80000
f0700000
f8798000
7fbf0000
3f1e0000
ENDCHAR
STARTCHAR '
ENCODING -1 39
SWIDTH 0 0
DWIDTH 8 0
BBX 4 6 3 10
BITMAP
7000
7000
7000
3000
6000
c000
ENDCHAR
STARTCHAR (
ENCODING -1 40
SWIDTH 0 0
DWIDTH 8 0
BBX 9 22 0 -6
BITMAP
0180
0300
0600
0c00
1800
3800
3000
7000
7000
6000
e000
e000
e000
e000
e000
e000
e000
6000
6000
3000
3000
1800
ENDCHAR
STARTCHAR )
ENCODING -1 41
SWIDTH 0 0
DWIDTH 8 0
BBX 9 22 -1 -6
BITMAP
0c00
0600
0600
0300
0300
0380
0380
0380
0380
0380
0380
0380
0300
0700
0700
0600
0e00
0c00
1800
3000
6000
c000
ENDCHAR
STARTCHAR *
ENCODING -1 42
SWIDTH 0 0
DWIDTH 10 0
BBX 8 7 2 9
BITMAP
1800
db00
db00
3c00
db00
db00
1800
ENDCHAR
STARTCHAR +
ENCODING -1 43
SWIDTH 0 0
DWIDTH 12 0
BBX 10 10 1 1
BITMAP
0c00
0c00
0c00
0c00
ffc0
ffc0
0c00
0c00
0c00
0c00
ENDCHAR
STARTCHAR ,
ENCODING -1 44
SWIDTH 0 0
DWIDTH 7 0
BBX 4 6 1 -4
BITMAP
7000
7000
7000
3000
6000
c000
ENDCHAR
STARTCHAR -
ENCODING -1 45
SWIDTH 0 0
DWIDTH 9 0
BBX 7 2 1 5
BITMAP
fe00
fe00
ENDCHAR
STARTCHAR .
ENCODING -1 46
SWIDTH 0 0
DWIDTH 7 0
BBX 3 3 1 -1
BITMAP
e000
e000
e000
ENDCHAR
STARTCHAR /
ENCODING -1 47
SWIDTH 0 0
DWIDTH 8 0
BBX 8 17 0 -1
BITMAP
0300
0600
0600
0600
0c00
0c00
0c00
1800
1800
1800
3000
3000
3000
6000
6000
6000
c000
ENDCHAR
STARTCHAR 0
ENCODING -1 48
SWIDTH 0 0
DWIDTH 13 0
BBX 12 17 1 -1
BITMAP
0380
0e60
1c60
3c70
3870
7870
7070
70f0
70e0
f0e0
e0e0
e1e0
e1c0
e3c0
6380
6700
1c00
ENDCHAR
STARTCHAR 1
ENCODING -1 49
SWIDTH 0 0
DWIDTH 12 0
BBX 10 17 0 -1
BITMAP
01c0
07c0
1fc0
0380
0380
0780
0700
0700
0f00
0f00
0e00
0e00
1e00
1c00
1c00
3e00
ff00
ENDCHAR
STARTCHAR 2
ENCODING -1 50
SWIDTH 0 0
DWIDTH 12 0
BBX 12 17 -1 -1
BITMAP
03c0
0fe0
18f0
1070
0070
0070
0060
00e0
00c0
0180
0300
0600
0c00
1820
3fe0
7fc0
ff80
ENDCHAR
STARTCHAR 3
ENCODING -1 51
SWIDTH 0 0
DWIDTH 12 0
BBX 12 17 0 -1
BITMAP
0fc0
19e0
10e0
00e0
00e0
01c0
0780
1f00
1f80
03c0
01e0
00e0
00e0
40c0
e1c0
e380
7e00
ENDCHAR
STARTCHAR 4
ENCODING -1 52
SWIDTH 0 0
DWIDTH 13 0
BBX 12 17 0 -1
BITMAP
0030
0070
00e0
01e0
03e0
07e0
0dc0
19c0
33c0
6380
7ff0
fff0
ffe0
0700
0700
0f00
0f00
ENDCHAR
STARTCHAR 5
ENCODING -1 53
SWIDTH 0 0
DWIDTH 12 0
BBX 12 17 0 -1
BITMAP
07f0
0fe0
0fe0
1800
3000
3e00
3f80
3f80
03c0
01c0
01c0
01c0
01c0
4180
e380
f700
7c00
ENDCHAR
STARTCHAR 6
ENCODING -1 54
SWIDTH 0 0
DWIDTH 12 0
BBX 12 17 1 -1
BITMAP
0070
01c0
0780
0f00
1e00
3c00
3f00
7980
71c0
f1c0
e1c0
e1c0
e3c0
e380
6780
7f00
1e00
ENDCHAR
STARTCHAR 7
ENCODING -1 55
SWIDTH 0 0
DWIDTH 12 0
BBX 11 17 1 -1
BITMAP
1fe0
3fe0
7fe0
60e0
00c0
0180
0380
0300
0600
0e00
0c00
1800
3800
3000
7000
e000
e000
ENDCHAR
STARTCHAR 8
ENCODING -1 56
SWIDTH 0 0
DWIDTH 12 0
BBX 11 17 1 -1
BITMAP
0f80
1cc0
3860
3860
3860
1cc0
1f80
0f00
1f00
3780
6380
c1c0
c1c0
c1c0
e380
7780
3e00
ENDCHAR
STARTCHAR 9
ENCODING -1 57
SWIDTH 0 0
DWIDTH 12 0
BBX 12 17 0 -1
BITMAP
07c0
1ee0
1c70
3870
3870
3870
3870
3870
1cf0
0fe0
01e0
01c0
03c0
0780
0f00
3c00
e000
ENDCHAR
STARTCHAR :
ENCODING -1 58
SWIDTH 0 0
DWIDTH 8 0
BBX 5 11 1 -1
BITMAP
3800
3800
3800
0000
0000
0000
0000
0000
e000
e000
e000
ENDCHAR
STARTCHAR ;
ENCODING -1 59
SWIDTH 0 0
DWIDTH 8 0
BBX 6 14 0 -4
BITMAP
1c00
1c00
1c00
0000
0000
0000
0000
0000
7000
7000
7000
3000
6000
c000
ENDCHAR
STARTCHAR <
ENCODING -1 60
SWIDTH 0 0
DWIDTH 12 0
BBX 10 9 1 1
BITMAP
01c0
0780
1e00
3800
e000
e000
3800
1e00
0700
ENDCHAR
STARTCHAR =
ENCODING -1 61
SWIDTH 0 0
DWIDTH 12 0
BBX 9 6 1 3
BITMAP
ff80
ff80
0000
0000
ff80
ff80
ENDCHAR
STARTCHAR >
ENCODING -1 62
SWIDTH 0 0
DWIDTH 12 0
BBX 10 9 1 1
BITMAP
3800
1e00
0700
01c0
01c0
0700
1e00
7800
e000
ENDCHAR
STARTCHAR ?
ENCODING -1 63
SWIDTH 0 0
DWIDTH 12 0
BBX 10 17 2 -1
BITMAP
1f00
3380
71c0
71c0
21c0
01c0
0380
0700
0e00
1c00
3800
3000
0000
0000
e000
e000
e000
ENDCHAR
STARTCHAR @
ENCODING -1 64
SWIDTH 0 0
DWIDTH 23 0
BBX 21 21 1 -5
BITMAP
007f0000
01c1c000
07006000
0e003000
1c1d9000
387f9800
70f38800
71c70800
e3870800
e3870800
e70e1800
e70e1000
e70e3000
e79c6000
e3fec000
61e70000
70000000
38000000
1e000000
0f830000
03fc0000
ENDCHAR
STARTCHAR A
ENCODING -1 65
SWIDTH 0 0
DWIDTH 16 0
BBX 17 17 -2 -1
BITMAP
00180000
00380000
00780000
00780000
00b80000
00b80000
01380000
031c0000
021c0000
061c0000
041c0000
0ffc0000
080e0000
180e0000
300e0000
700f0000
f81f8000
ENDCHAR
STARTCHAR B
ENCODING -1 66
SWIDTH 0 0
DWIDTH 16 0
BBX 15 17 0 -1
BITMAP
0ff8
07bc
079e
071e
0f1e
0f1e
0e3c
1ff8
1e70
1c38
3c3c
3c3c
383c
783c
7878
70f0
ffc0
ENDCHAR
STARTCHAR C
ENCODING -1 67
SWIDTH 0 0
DWIDTH 16 0
BBX 16 17 0 -1
BITMAP
03fb
0f8f
1e06
3c02
3802
7800
7000
f000
f000
f000
f000
f000
f000
7806
7c1c
3ff8
0fe0
ENDCHAR
STARTCHAR D
ENCODING -1 68
SWIDTH 0 0
DWIDTH 19 0
BBX 18 17 0 -1
BITMAP
0ffc0000
078f0000
07878000
07078000
0f03c000
0f03c000
0e03c000
1e03c000
1e03c000
1c03c000
3c078000
3c078000
380f0000
781e0000
783c0000
70f00000
ff800000
ENDCHAR
STARTCHAR E
ENCODING -1 69
SWIDTH 0 0
DWIDTH 16 0
BBX 17 17 0 -1
BITMAP
0fff8000
07838000
07810000
07010000
0f000000
0f080000
0e180000
1e300000
1ff00000
1c700000
3c200000
3c200000
38020000
78060000
780e0000
703c0000
fffc0000
ENDCHAR
STARTCHAR F
ENCODING -1 70
SWIDTH 0 0
DWIDTH 15 0
BBX 17 17 0 -1
BITMAP
0fff8000
07838000
07810000
07010000
0f000000
0f080000
0e180000
1e300000
1ff00000
1c700000
3c200000
3c200000
38000000
78000000
78000000
70000000
fc000000
ENDCHAR
STARTCHAR G
ENCODING -1 71
SWIDTH 0 0
DWIDTH 18 0
BBX 17 17 1 -1
BITMAP
03fb0000
0f8f0000
1e060000
3c020000
38020000
78000000
70000000
f0000000
f0000000
f01f8000
f00f0000
f00e0000
f00e0000
781e0000
7c1c0000
3ffc0000
0ff00000
ENDCHAR
STARTCHAR H
ENCODING -1 72
SWIDTH 0 0
DWIDTH 18 0
BBX 20 17 0 -1
BITMAP
0fc7f000
0781c000
0783c000
0703c000
0f038000
0f078000
0e078000
1e070000
1fff0000
1c0f0000
3c0e0000
3c0e0000
381e0000
781c0000
781c0000
703c0000
f87e0000
ENDCHAR
STARTCHAR I
ENCODING -1 73
SWIDTH 0 0
DWIDTH 9 0
BBX 10 17 0 -1
BITMAP
0fc0
0780
0780
0700
0f00
0f00
0e00
1e00
1e00
1c00
3c00
3c00
3800
7800
7800
7000
f800
ENDCHAR
STARTCHAR J
ENCODING -1 74
SWIDTH 0 0
DWIDTH 12 0
BBX 14 19 -1 -3
BITMAP
00fc
0078
0078
0070
00f0
00f0
00e0
01e0
01e0
01c0
03c0
03c0
0380
0780
0780
e700
ef00
ee00
7c00
ENDCHAR
STARTCHAR K
ENCODING -1 75
SWIDTH 0 0
DWIDTH 17 0
BBX 18 17 0 -1
BITMAP
0fcfc000
07860000
078c0000
07180000
0f300000
0f600000
0ec00000
1f800000
1fc00000
1fc00000
3de00000
3ce00000
38f00000
78700000
78780000
703c0000
f8ff0000
ENDCHAR
STARTCHAR L
ENCODING -1 76
SWIDTH 0 0
DWIDTH 15 0
BBX 14 17 0 -1
BITMAP
0fc0
0780
0780
0700
0f00
0f00
0e00
1e00
1e00
1c00
3c00
3c00
3804
780c
781c
7078
fff8
ENDCHAR
STARTCHAR M
ENCODING -1 77
SWIDTH 0 0
DWIDTH 21 0
BBX 22 17 0 -1
BITMAP
0f803c00
07807800
0780f800
0781f000
0f81f000
0fc3f000
0bc6e000
0bc4e000
1bcde000
13c9e000
11d9c000
11f1c000
31e3c000
21e38000
21c38000
71878000
f98fc000
ENDCHAR
STARTCHAR N
ENCODING -1 78
SWIDTH 0 0
DWIDTH 18 0
BBX 21 17 -1 -1
BITMAP
0fc0f800
03c07000
03c06000
03e06000
07e04000
05f04000
04f0c000
04f88000
0c788000
0c7d8000
083d0000
183f0000
181f0000
101f0000
300f0000
700e0000
fc060000
ENDCHAR
STARTCHAR O
ENCODING -1 79
SWIDTH 0 0
DWIDTH 18 0
BBX 17 17 1 -1
BITMAP
00f80000
038e0000
0f070000
1e078000
3c078000
3c078000
78078000
78078000
f0078000
f00f0000
f00f0000
f01e0000
f01e0000
f03c0000
70780000
38f00000
0fc00000
ENDCHAR
STARTCHAR P
ENCODING -1 80
SWIDTH 0 0
DWIDTH 15 0
BBX 16 17 0 -1
BITMAP
0ff8
079e
078f
070f
0f0f
0f0f
0e1e
1e3c
1ff0
1c00
3c00
3c00
3800
7800
7800
7000
f800
ENDCHAR
STARTCHAR Q
ENCODING -1 81
SWIDTH 0 0
DWIDTH 18 0
BBX 17 22 0 -6
BITMAP
00fc0000
038e0000
0f070000
1e078000
3c078000
3c078000
78078000
78078000
f0078000
f00f0000
f00f0000
f01e0000
f01e0000
f03c0000
70780000
38f00000
1fc00000
0c000000
18018000
3fc30000
7ffe0000
c1f80000
ENDCHAR
STARTCHAR R
ENCODING -1 82
SWIDTH 0 0
DWIDTH 17 0
BBX 16 17 0 -1
BITMAP
0ff8
079e
078f
070f
0f0f
0f0f
0e1e
1e3c
1ff0
1ce0
3ce0
3cf0
3870
7878
7838
703c
f87e
ENDCHAR
STARTCHAR S
ENCODING -1 83
SWIDTH 0 0
DWIDTH 14 0
BBX 15 17 -1 -1
BITMAP
03f6
071e
0e0c
0e04
0e04
0f00
0f80
07c0
03e0
01f0
00f8
10f8
3078
3078
70f0
79e0
4fc0
ENDCHAR
STARTCHAR T
ENCODING -1 84
SWIDTH 0 0
DWIDTH 15 0
BBX 15 17 2 -1
BITMAP
7ffe
e3ce
c3c6
8384
0780
0780
0700
0f00
0f00
0e00
1e00
1e00
1c00
3c00
3c00
3800
ff00
ENDCHAR
STARTCHAR U
ENCODING -1 85
SWIDTH 0 0
DWIDTH 18 0
BBX 19 17 1 -1
BITMAP
3f07e000
1e018000
1e018000
1c030000
3c030000
3c030000
38060000
78060000
78060000
780c0000
f00c0000
f00c0000
f0180000
f0180000
70300000
78600000
1f800000
ENDCHAR
STARTCHAR V
ENCODING -1 86
SWIDTH 0 0
DWIDTH 16 0
BBX 17 17 1 -1
BITMAP
fc0f8000
78070000
38060000
380c0000
380c0000
3c180000
1c300000
1c300000
1c600000
1c600000
1cc00000
1cc00000
1d800000
0f000000
0e000000
0e000000
0c000000
ENDCHAR
STARTCHAR W
ENCODING -1 87
SWIDTH 0 0
DWIDTH 21 0
BBX 23 17 1 -1
BITMAP
fc7c7e00
78381c00
38381800
38381000
38383000
3c7c2000
1c5c6000
1cdc4000
1c9cc000
1d9c8000
1d1d8000
1f1d0000
1e1f0000
0e0e0000
0e0e0000
0c0c0000
0c0c0000
ENDCHAR
STARTCHAR X
ENCODING -1 88
SWIDTH 0 0
DWIDTH 17 0
BBX 18 17 0 -1
BITMAP
3fc7c000
0f038000
07070000
070e0000
079c0000
03b80000
03f00000
01e00000
01e00000
01e00000
03f00000
07700000
0e780000
1c380000
383c0000
781c0000
fc7f0000
ENDCHAR
STARTCHAR Y
ENCODING -1 89
SWIDTH 0 0
DWIDTH 14 0
BBX 14 17 2 -1
BITMAP
fc7c
7838
7830
3860
3c40
3cc0
1c80
1d80
1f00
0e00
0e00
1e00
1e00
1c00
3c00
3c00
ff00
ENDCHAR
STARTCHAR Z
ENCODING -1 90
SWIDTH 0 0
DWIDTH 15 0
BBX 16 17 -1 -1
BITMAP
0fff
1e1f
181e
303c
0078
00f0
01e0
01e0
03c0
0780
0f00
1e00
3e06
3c0c
781c
f078
fff8
ENDCHAR
STARTCHAR [
ENCODING -1 91
SWIDTH 0 0
DWIDTH 10 0
BBX 10 21 0 -5
BITMAP
0fc0
0e00
0e00
0e00
1e00
1c00
1c00
1c00
1c00
3c00
3800
3800
3800
7800
7000
7000
7000
7000
f000
e000
fc00
ENDCHAR
STARTCHAR \
ENCODING -1 92
SWIDTH 0 0
DWIDTH 9 0
BBX 7 17 1 -1
BITMAP
c000
c000
c000
6000
6000
6000
3000
3000
3000
1800
1800
1800
0c00
0c00
0c00
0600
0600
ENDCHAR
STARTCHAR ]
ENCODING -1 93
SWIDTH 0 0
DWIDTH 11 0
BBX 11 21 -1 -5
BITMAP
07e0
01e0
01c0
01c0
01c0
03c0
0380
0380
0380
0700
0700
0700
0700
0f00
0e00
0e00
0e00
0c00
1c00
1c00
fc00
ENDCHAR
STARTCHAR ^
ENCODING -1 94
SWIDTH 0 0
DWIDTH 14 0
BBX 10 9 2 7
BITMAP
0e00
0e00
1f00
1b00
3300
7380
6180
e1c0
c1c0
ENDCHAR
STARTCHAR _
ENCODING -1 95
SWIDTH 0 0
DWIDTH 13 0
BBX 13 2 0 -5
BITMAP
fff8
fff8
ENDCHAR
STARTCHAR `
ENCODING -1 96
SWIDTH 0 0
DWIDTH 8 0
BBX 4 6 4 10
BITMAP
3000
6000
c000
e000
e000
e000
ENDCHAR
STARTCHAR a
ENCODING -1 97
SWIDTH 0 0
DWIDTH 14 0
BBX 13 11 0 -1
BITMAP
07b8
1ef8
3c70
38f0
70e0
71e0
e1c0
e3c0
e7c8
fdf0
78e0
ENDCHAR
STARTCHAR b
ENCODING -1 98
SWIDTH 0 0
DWIDTH 13 0
BBX 12 17 0 -1
BITMAP
1e00
0e00
0c00
1c00
1c00
1800
39e0
3bf0
3670
7c70
7870
7070
f0e0
e0e0
e1c0
e380
7e00
ENDCHAR
STARTCHAR c
ENCODING -1 99
SWIDTH 0 0
DWIDTH 11 0
BBX 11 11 0 -1
BITMAP
07c0
1ce0
38e0
3800
7000
7000
e000
e000
e180
f300
7c00
ENDCHAR
STARTCHAR d
ENCODING -1 100
SWIDTH 0 0
DWIDTH 14 0
BBX 14 17 0 -1
BITMAP
003c
001c
001c
0038
0038
0038
07b0
1ef0
3c70
3870
70f0
70e0
e1e0
e3e0
e6e4
fef8
7870
ENDCHAR
STARTCHAR e
ENCODING -1 101
SWIDTH 0 0
DWIDTH 10 0
BBX 10 11 0 -1
BITMAP
0780
1fc0
39c0
7180
7700
fc00
e000
e000
f180
7f00
3c00
ENDCHAR
STARTCHAR f
ENCODING -1 102
SWIDTH 0 0
DWIDTH 11 0
BBX 15 22 -2 -6
BITMAP
003c
00ee
00ce
01c4
01c0
01c0
0ff8
0ff8
0380
0380
0380
0700
0700
0700
0700
0e00
0e00
0e00
dc00
dc00
f800
7000
ENDCHAR
STARTCHAR g
ENCODING -1 103
SWIDTH 0 0
DWIDTH 12 0
BBX 13 16 -1 -6
BITMAP
07c0
1ef8
1c70
3870
3870
38e0
1dc0
0f80
3800
3f00
1fc0
71c0
e0e0
e0e0
f1c0
3f80
ENDCHAR
STARTCHAR h
ENCODING -1 104
SWIDTH 0 0
DWIDTH 13 0
BBX 12 17 0 -1
BITMAP
1e00
0e00
0e00
1c00
1c00
1c00
39c0
3be0
36e0
7ce0
78e0
71c0
71c0
e1c0
e390
e3e0
e1c0
ENDCHAR
STARTCHAR i
ENCODING -1 105
SWIDTH 0 0
DWIDTH 7 0
BBX 7 17 0 -1
BITMAP
0e00
0e00
0e00
0000
0000
0000
3c00
1c00
1c00
3800
3800
3800
7000
7000
e400
f800
7000
ENDCHAR
STARTCHAR j
ENCODING -1 106
SWIDTH 0 0
DWIDTH 8 0
BBX 10 22 -2 -6
BITMAP
01c0
01c0
01c0
0000
0000
0000
0780
0380
0380
0380
0300
0700
0700
0700
0600
0e00
0e00
0e00
0c00
dc00
f800
7000
ENDCHAR
STARTCHAR k
ENCODING -1 107
SWIDTH 0 0
DWIDTH 13 0
BBX 13 17 0 -1
BITMAP
0f00
0700
0700
0e00
0e00
0e00
1cf8
1c60
38c0
3b80
3f00
7f00
7380
7380
e1d0
e1e0
e0c0
ENDCHAR
STARTCHAR l
ENCODING -1 108
SWIDTH 0 0
DWIDTH 8 0
BBX 7 17 1 -1
BITMAP
1e00
0e00
0e00
1c00
1c00
1c00
3800
3800
3800
7000
7000
7000
7000
e000
e400
f800
7000
ENDCHAR
STARTCHAR m
ENCODING -1 109
SWIDTH 0 0
DWIDTH 19 0
BBX 19 11 0 -1
BITMAP
79c70000
3bef8000
3cf38000
38e38000
38e38000
71c70000
71c70000
71ce0000
e38e4000
e38f8000
e3870000
ENDCHAR
STARTCHAR n
ENCODING -1 110
SWIDTH 0 0
DWIDTH 13 0
BBX 12 11 0 -1
BITMAP
71c0
bbe0
3ce0
38e0
38e0
71c0
71c0
71c0
e390
e3e0
e1c0
ENDCHAR
STARTCHAR o
ENCODING -1 111
SWIDTH 0 0
DWIDTH 12 0
BBX 11 11 0 -1
BITMAP
0f80
3dc0
38e0
70e0
70e0
e0e0
e1c0
e1c0
e380
7780
3e00
ENDCHAR
STARTCHAR p
ENCODING -1 112
SWIDTH 0 0
DWIDTH 13 0
BBX 14 16 -1 -6
BITMAP
1e70
0ef8
0f3c
1e1c
1c1c
1c1c
1c18
3838
3c30
3e60
73c0
7000
7000
e000
e000
f000
ENDCHAR
STARTCHAR q
ENCODING -1 113
SWIDTH 0 0
DWIDTH 12 0
BBX 11 16 0 -6
BITMAP
0ee0
1de0
38e0
38c0
71c0
71c0
e380
e380
e780
fb80
7300
0700
0700
0600
0e00
1f00
ENDCHAR
STARTCHAR r
ENCODING -1 114
SWIDTH 0 0
DWIDTH 10 0
BBX 10 11 0 -1
BITMAP
7980
3bc0
37c0
3cc0
3800
7800
7000
7000
e000
e000
e000
ENDCHAR
STARTCHAR s
ENCODING -1 115
SWIDTH 0 0
DWIDTH 10 0
BBX 9 11 0 -1
BITMAP
1f00
3980
3180
3800
3c00
1e00
0f00
8700
c700
ee00
bc00
ENDCHAR
STARTCHAR t
ENCODING -1 116
SWIDTH 0 0
DWIDTH 8 0
BBX 7 14 1 -1
BITMAP
0c00
1c00
1800
7e00
fe00
3800
3800
7000
7000
7000
e000
e400
f800
7000
ENDCHAR
STARTCHAR u
ENCODING -1 117
SWIDTH 0 0
DWIDTH 13 0
BBX 12 11 0 -1
BITMAP
3870
7c70
9c70
38e0
38e0
38e0
71c0
71c0
73c0
7dd0
38e0
ENDCHAR
STARTCHAR v
ENCODING -1 118
SWIDTH 0 0
DWIDTH 11 0
BBX 10 11 0 -1
BITMAP
f180
73c0
71c0
70c0
7180
3980
3b00
3e00
3c00
3800
3000
ENDCHAR
STARTCHAR w
ENCODING -1 119
SWIDTH 0 0
DWIDTH 16 0
BBX 16 11 0 -1
BITMAP
f0c6
70cf
70c7
71c3
39c6
3bc6
3ecc
3cf8
38f0
38e0
30c0
ENDCHAR
STARTCHAR x
ENCODING -1 120
SWIDTH 0 0
DWIDTH 12 0
BBX 12 11 -1 -1
BITMAP
1e70
0e70
0660
06c0
0780
0700
0f00
1b00
f390
e3e0
c1c0
ENDCHAR
STARTCHAR y
ENCODING -1 121
SWIDTH 0 0
DWIDTH 11 0
BBX 11 16 0 -6
BITMAP
79e0
38e0
38e0
38c0
1cc0
1d80
1d00
0f00
0e00
0600
0c00
0c00
d800
d800
f000
6000
ENDCHAR
STARTCHAR z
ENCODING -1 122
SWIDTH 0 0
DWIDTH 10 0
BBX 10 13 -1 -3
BITMAP
1fc0
1fc0
3180
2300
0600
0c00
1800
3000
6000
f000
f980
0d80
0700
ENDCHAR
STARTCHAR {
ENCODING -1 123
SWIDTH 0 0
DWIDTH 7 0
BBX 9 21 0 -5
BITMAP
0380
0600
0c00
1c00
1c00
1c00
1800
3800
7000
c000
6000
7000
7000
7000
7000
e000
e000
e000
6000
3000
1c00
ENDCHAR
STARTCHAR |
ENCODING -1 124
SWIDTH 0 0
DWIDTH 6 0
BBX 8 22 -1 -6
BITMAP
0300
0300
0300
0700
0600
0600
0e00
0c00
0c00
1c00
1800
1800
3800
3000
3000
7000
6000
6000
e000
c000
c000
c000
ENDCHAR
STARTCHAR }
ENCODING -1 125
SWIDTH 0 0
DWIDTH 10 0
BBX 10 21 0 -5
BITMAP
0e00
0300
0380
0380
0380
0700
0700
0700
0380
00c0
0380
0700
0e00
0e00
0e00
0e00
0c00
1c00
1800
3000
e000
ENDCHAR
STARTCHAR ~
ENCODING -1 126
SWIDTH 0 0
DWIDTH 14 0
BBX 12 4 1 4
BITMAP
3c30
7e70
e7e0
c3c0
ENDCHAR
ENDFONT
